<svg width="519" height="530" viewBox="0 0 519 530" fill="none" xmlns="http://www.w3.org/2000/svg">
<rect width="87.4719" height="24.7086" rx="12.3543" fill="#3B82F6"/>
<rect y="70.4196" width="145.787" height="24.7086" rx="12.3543" fill="#3B82F6"/>
<rect x="17.4944" y="112.424" width="87.4719" height="24.7086" rx="12.3543" fill="#3B82F6"/>
<rect x="34.9888" y="154.429" width="87.4719" height="24.7086" rx="12.3543" fill="#3B82F6"/>
<rect x="52.4832" y="350.862" width="87.4719" height="24.7086" rx="12.3543" fill="#3B82F6"/>
<rect x="52.4832" y="196.434" width="87.4719" height="24.7086" rx="12.3543" fill="#3B82F6"/>
<rect x="151.618" y="196.434" width="87.4719" height="24.7086" rx="12.3543" fill="#93C5FD"/>
<rect x="51.3169" y="505.291" width="87.4719" height="24.7086" rx="12.3543" fill="#3B82F6"/>
<rect x="150.452" y="505.291" width="87.4719" height="24.7086" rx="12.3543" fill="#93C5FD"/>
<rect x="52.4832" y="238.438" width="87.4719" height="24.7086" rx="12.3543" fill="#93C5FD"/>
<rect x="52.4832" y="280.443" width="87.4719" height="24.7086" rx="12.3543" fill="#93C5FD"/>
<rect x="250.753" y="196.434" width="87.4719" height="24.7086" rx="12.3543" fill="#3B82F6"/>
<rect x="349.888" y="196.434" width="87.4719" height="24.7086" rx="12.3543" fill="#34D399"/>
<rect x="151.618" y="350.862" width="87.4719" height="24.7086" rx="12.3543" fill="#93C5FD"/>
<rect x="250.753" y="350.862" width="87.4719" height="24.7086" rx="12.3543" fill="#3B82F6"/>
<rect x="349.888" y="350.862" width="87.4719" height="24.7086" rx="12.3543" fill="#34D399"/>
<rect x="134.124" y="154.429" width="87.4719" height="24.7086" rx="12.3543" fill="#3B82F6"/>
<rect x="233.258" y="154.429" width="87.4719" height="24.7086" rx="12.3543" fill="#FCD34D"/>
<rect x="153.951" y="238.438" width="87.4719" height="24.7086" rx="12.3543" fill="#FCD34D"/>
<rect x="155.117" y="280.443" width="87.4719" height="24.7086" rx="12.3543" fill="#FCD34D"/>
<rect x="51.3169" y="392.867" width="87.4719" height="24.7086" rx="12.3543" fill="#93C5FD"/>
<rect x="51.3169" y="434.872" width="87.4719" height="24.7086" rx="12.3543" fill="#93C5FD"/>
<rect x="152.784" y="392.867" width="87.4719" height="24.7086" rx="12.3543" fill="#FCD34D"/>
<rect x="153.951" y="434.872" width="87.4719" height="24.7086" rx="12.3543" fill="#FCD34D"/>
<rect x="332.393" y="154.429" width="87.4719" height="24.7086" rx="12.3543" fill="#3B82F6"/>
<rect x="431.528" y="154.429" width="87.4719" height="24.7086" rx="12.3543" fill="#3B82F6"/>
<rect x="93.3034" width="87.4719" height="24.7086" rx="12.3543" fill="white"/>
<rect x="151.618" y="70.4196" width="87.4719" height="24.7086" rx="12.3543" fill="white"/>
<rect x="110.798" y="112.424" width="87.4719" height="24.7086" rx="12.3543" fill="#34D399"/>
</svg>
